<svg xmlns="http://www.w3.org/2000/svg" viewBox="0 0 128 128" width="128" height="128">
  <defs>
    <linearGradient id="g" x1="0" y1="0" x2="1" y2="1">
      <stop offset="0" stop-color="#5AC8FA" />
      <stop offset=".5" stop-color="#0A84FF" />
      <stop offset="1" stop-color="#7A5BFF" />
    </linearGradient>
  </defs>
  <rect x="6" y="6" width="116" height="116" rx="32" fill="url(#g)" />
  <g fill="none" stroke="#fff" stroke-width="7" stroke-linecap="round" stroke-linejoin="round">
    <path d="M40 32 H34 a6 6 0 0 0-6 6 V44" />
    <path d="M88 32 H94 a6 6 0 0 1 6 6 V44" />
    <path d="M40 96 H34 a6 6 0 0 1-6-6 V84" />
    <path d="M88 96 H94 a6 6 0 0 0 6-6 V84" />
    <path d="M64 50 V78 M50 64 H78" />
  </g>
</svg>
